PathFileType	4	(X/Y/Z)	s06c0103.trc
DataRate	CameraRate	NumFrames	NumMarkers	Units	OrigDataRate	OrigDataStartFrame	OrigNumFrames
200	200	5	48	mm	200	1250	2000
Frame#	Time	racr			lacr			c7			jug			rlel			rdr			llel			ldr			s2			lic			ric			lasi			rasi			rpsi			lpsi			rgt			lgt			rth1			rth2			rth3			rth4			rlfc			rmfc			rsh1			rsh2			rsh3			rsh4			rlmal			rcal			rtoe			rmt5			lth1			lth2			lth4			lth3			llfc			lmfc			llmal			lcal			lmt5			lsh1			lsh2			lsh3			lsh4			ltoe			SBIKE			LBIKE			RBIKE			
		X1	Y1	Z1	X2	Y2	Z2	X3	Y3	Z3	X4	Y4	Z4	X5	Y5	Z5	X6	Y6	Z6	X7	Y7	Z7	X8	Y8	Z8	X9	Y9	Z9	X10	Y10	Z10	X11	Y11	Z11	X12	Y12	Z12	X13	Y13	Z13	X14	Y14	Z14	X15	Y15	Z15	X16	Y16	Z16	X17	Y17	Z17	X18	Y18	Z18	X19	Y19	Z19	X20	Y20	Z20	X21	Y21	Z21	X22	Y22	Z22	X23	Y23	Z23	X24	Y24	Z24	X25	Y25	Z25	X26	Y26	Z26	X27	Y27	Z27	X28	Y28	Z28	X29	Y29	Z29	X30	Y30	Z30	X31	Y31	Z31	X32	Y32	Z32	X33	Y33	Z33	X34	Y34	Z34	X35	Y35	Z35	X36	Y36	Z36	X37	Y37	Z37	X38	Y38	Z38	X39	Y39	Z39	X40	Y40	Z40	X41	Y41	Z41	X42	Y42	Z42	X43	Y43	Z43	X44	Y44	Z44	X45	Y45	Z45	X46	Y46	Z46	X47	Y47	Z47	X48	Y48	Z48	
1250	6.2500	515.979427	1290.599543	-71.093557	529.828286	1276.713673	-371.246574	534.291283	1339.489133	-221.984998	493.949035	1180.970534	-207.242654	526.707107	1047.005900	41.324224	718.165992	916.486470	-41.691271	483.517322	1018.533985	-454.701651	699.701477	931.094177	-400.529425	-28.953554	1165.846859	-220.809410	136.448201	1127.963524	-384.583384	116.977470	1112.116882	-51.697251	148.362092	1082.174370	-346.957345	145.617543	1069.461818	-86.483073	5.172547	1196.041880	-184.401661	4.224258	1202.942168	-243.239398	68.869221	1025.830725	-28.824605	108.329589	1097.318088	-409.312809	155.280996	918.855210	-14.157701	223.132087	859.370417	-19.342068	250.617651	776.649052	-27.815538	250.851390	880.576599	-33.354802	277.697944	677.745895	-46.737926	270.516304	658.797980	-158.733604	212.689567	575.127447	-25.321339	180.972065	496.581300	-48.040798	115.668292	438.809585	-52.912095	202.299708	487.263511	-81.338874	60.737453	383.251749	-60.340709	2.680927	404.897757	-110.833668	162.799051	180.437391	-88.278629	82.308346	246.589910	-28.359157	174.190001	1004.137592	-424.503582	256.652508	976.892083	-414.264904	274.585066	1005.434932	-397.220237	315.810706	909.927317	-410.654342	379.585841	811.310576	-379.451743	379.339383	791.167449	-265.530213	245.081027	457.849245	-374.395131	173.854336	417.463046	-326.693827	369.058136	408.320281	-404.824555	347.518757	705.333426	-400.496402	336.088849	620.780906	-382.531054	284.984090	548.318856	-383.986986	360.080367	615.376046	-351.468073	454.478745	426.499106	-347.368611	-204.041383	865.249373	-212.091563	-50.773980	80.054339	-411.308392	-50.942116	80.497985	-13.569211	
1251	6.2550	516.400750	1289.563829	-71.006171	530.846180	1275.254775	-371.277833	535.273206	1338.605566	-221.593301	494.359027	1180.207724	-207.269022	526.897044	1046.270809	42.223177	718.397699	916.329408	-41.469111	483.834112	1016.854002	-454.483091	700.066334	930.292950	-400.035330	-28.378141	1164.335150	-220.522888	137.510171	1125.254596	-384.699446	118.213205	1111.146833	-51.841874	149.866111	1080.032210	-346.421470	146.534843	1068.727934	-86.741050	5.927893	1194.739528	-184.535873	5.026251	1201.077754	-243.610112	71.346596	1025.808401	-27.830759	108.566064	1092.843270	-409.879728	158.890101	920.963469	-14.173226	228.012596	862.783678	-19.071134	257.249707	780.524788	-26.530761	255.892505	885.109630	-32.626388	284.610238	681.658842	-45.917463	276.896585	662.630620	-157.680419	217.132478	580.303661	-24.382859	183.127625	502.830727	-47.465824	116.228115	446.846179	-52.344203	203.997909	493.124562	-80.839672	59.350732	392.975884	-59.900839	1.671693	415.657139	-110.390481	158.107306	188.759451	-88.221649	78.607344	256.017456	-28.196684	173.967194	998.318658	-424.506449	255.814824	969.371168	-414.208316	274.437641	997.552009	-397.409217	313.450857	901.170583	-410.575043	375.366114	800.508800	-379.820777	375.217204	779.821422	-266.069201	248.054164	445.887721	-374.096881	177.643568	404.643551	-326.113519	372.576497	398.228558	-404.510530	345.035460	694.108736	-400.376295	335.680863	609.209800	-381.994251	286.025439	535.703423	-382.908168	359.758735	604.571956	-351.122872	458.009906	417.476006	-347.286894	-203.937204	865.296704	-211.993264	-50.715980	80.051165	-411.273568	-50.829972	80.409881	-13.573392	
1252	6.2600	516.838964	1288.579968	-71.207255	531.817097	1273.842733	-371.460545	536.113038	1337.964312	-221.445842	495.094124	1179.556443	-207.680777	526.961944	1045.532158	43.051822	718.605960	916.179691	-41.326092	484.011597	1015.081937	-454.377850	700.285925	929.934269	-399.835717	-27.813987	1162.634749	-220.219653	138.408615	1122.415633	-384.805280	119.523341	1110.351450	-52.069973	151.258923	1077.820572	-345.846995	147.797574	1068.260546	-86.997101	6.644803	1193.230183	-184.611269	5.668616	1199.163510	-243.929326	74.025846	1025.761793	-26.686431	108.778348	1088.126619	-410.420761	162.518138	923.334041	-13.857548	232.947682	866.123277	-19.009964	263.646262	784.421242	-25.439990	260.343805	888.972892	-32.730547	291.609363	685.642591	-44.994910	283.218113	666.489650	-156.413967	221.859240	585.546625	-23.372133	185.504908	509.222692	-46.738968	117.036246	455.211942	-51.670266	205.729712	499.033319	-80.455203	58.351507	402.978850	-59.370060	0.947746	426.953826	-109.786137	154.053374	197.430530	-88.237255	75.520449	265.662485	-28.025733	173.674349	992.240577	-424.433548	254.899248	961.541524	-414.234640	274.242992	989.482281	-397.819913	310.918826	892.232409	-410.337496	370.958393	789.828269	-380.349634	371.737284	768.855382	-267.303343	250.797437	434.108440	-373.833422	180.826243	392.343752	-325.766336	375.783005	388.023639	-404.397599	342.486142	682.872674	-400.455410	335.037928	597.904655	-381.718973	287.056726	523.558371	-382.266159	359.291051	594.083064	-351.048184	461.066912	407.915060	-347.195355	-203.860484	865.345155	-211.892560	-50.682726	80.079662	-411.236099	-50.824325	80.478309	-13.521577	
1253	6.2650	517.214695	1287.762079	-71.576238	532.613058	1272.428047	-371.747442	536.777981	1337.394162	-221.713228	495.839403	1178.947721	-208.301230	526.945578	1044.968060	43.757403	718.818227	916.169006	-41.129445	484.006147	1013.360759	-454.471455	700.380921	929.644637	-399.532146	-27.157880	1160.726342	-219.848146	139.143527	1119.506481	-384.924435	120.972572	1109.330050	-52.196508	152.563834	1075.576121	-345.297063	148.937857	1067.087177	-87.299344	7.316163	1191.005013	-184.605789	6.639301	1197.141205	-244.279036	76.713432	1025.860838	-25.335672	109.040560	1083.311300	-410.924921	166.312735	925.568890	-14.015450	238.213463	869.616342	-18.191944	270.080957	788.782791	-24.457093	264.818136	892.895841	-32.909935	298.712699	689.815142	-43.886660	289.459293	670.482983	-154.954389	227.099734	590.853375	-22.313405	188.168653	515.997810	-45.777057	118.175794	463.652423	-51.029142	207.896627	505.019102	-79.931417	57.923703	413.153406	-58.860871	0.647279	437.882011	-109.515080	150.679260	206.418807	-88.227564	73.015903	275.598212	-27.890088	173.353520	985.918463	-424.362253	253.867066	953.520093	-414.283118	273.933706	981.125992	-398.515987	308.150913	882.790882	-409.644146	366.703542	779.257439	-380.923764	368.957020	758.648370	-268.041922	253.097424	422.556114	-373.567045	183.501495	380.485076	-325.477821	378.432201	377.007038	-403.435957	340.007126	671.978084	-401.087127	334.237413	586.764469	-381.479797	287.895021	511.235996	-381.190981	358.750928	583.661739	-351.000591	463.640590	398.011422	-347.115281	-203.793672	865.422801	-211.762416	-50.677582	80.066517	-411.172360	-50.687572	80.176801	-13.712936	
1254	6.2700	517.531770	1287.112915	-72.092067	533.397572	1271.003356	-371.993000	537.236795	1336.893916	-222.284323	496.853242	1178.304890	-209.022605	526.827459	1044.495225	44.253985	718.973822	916.143766	-40.956334	483.859570	1011.711992	-454.698481	700.398016	929.422050	-399.320539	-27.058636	1161.297403	-217.929898	139.701126	1116.455266	-384.986398	122.041027	1108.470128	-52.773814	153.702951	1073.201997	-344.710303	149.364042	1064.870798	-89.780975	8.182154	1189.302064	-184.681312	7.414982	1194.861138	-244.636609	79.526497	1025.945025	-24.103457	109.353548	1078.359686	-411.368338	170.207735	927.970324	-14.062326	243.256022	873.287641	-17.787081	276.579262	793.113571	-23.169255	269.207051	896.960083	-32.960621	306.216798	693.978957	-42.548210	295.967695	674.444578	-153.134647	232.055378	596.419510	-21.324173	191.030013	522.733733	-45.027059	119.561566	472.512237	-50.236096	210.281749	511.519431	-79.395257	58.036674	423.353821	-58.319943	0.860770	449.163325	-108.607492	147.953597	215.559307	-88.244849	71.247573	285.604653	-27.804921	172.922789	979.556045	-424.259331	252.558270	945.162586	-414.041091	273.542886	972.443736	-398.788490	305.312313	873.433037	-409.378622	362.143838	768.508590	-380.856726	364.724824	747.413966	-270.009243	255.002411	411.061273	-373.400392	185.630285	368.882452	-325.256163	380.523978	366.465824	-403.135253	337.236152	661.099431	-401.344397	333.139829	576.153198	-381.548170	288.459856	499.611612	-380.738395	357.994655	573.426789	-350.921822	465.683382	387.843186	-347.019232	-203.739788	865.492376	-211.606657	-50.648738	80.128166	-411.179611	-50.662850	80.164033	-13.670107	
